<?xml version="1.0" standalone="no"?>
<!DOCTYPE svg PUBLIC "-//W3C//DTD SVG 20010904//EN"
 "http://www.w3.org/TR/2001/REC-SVG-20010904/DTD/svg10.dtd">
<svg version="1.0" xmlns="http://www.w3.org/2000/svg"
 width="512.000000pt" height="512.000000pt" viewBox="0 0 512.000000 512.000000"
 preserveAspectRatio="xMidYMid meet">

<g transform="translate(0.000000,512.000000) scale(0.100000,-0.100000)"
fill="#000000" stroke="none">
<path d="M778 4260 c-147 -25 -284 -144 -328 -287 -20 -64 -20 -90 -20 -1412
0 -1471 -3 -1396 56 -1497 31 -53 119 -136 173 -164 101 -51 48 -50 1901 -50
1853 0 1800 -1 1901 50 54 28 142 111 173 164 58 100 56 47 56 1286 0 1264 4
1184 -69 1297 -45 69 -123 134 -203 166 -53 22 -54 22 -953 25 l-900 3 -215
214 -216 215 -655 -1 c-359 -1 -675 -5 -701 -9z"/>
</g>
</svg>
