<?xml version="1.0" standalone="no"?>
<!DOCTYPE svg PUBLIC "-//W3C//DTD SVG 20010904//EN"
 "http://www.w3.org/TR/2001/REC-SVG-20010904/DTD/svg10.dtd">
<svg version="1.0" xmlns="http://www.w3.org/2000/svg"
 width="512.000000pt" height="512.000000pt" viewBox="0 0 512.000000 512.000000"
 preserveAspectRatio="xMidYMid meet">

<g transform="translate(0.000000,512.000000) scale(0.100000,-0.100000)"
fill="#000000" stroke="none">
<path d="M1143 4669 c-113 -36 -216 -135 -265 -257 l-23 -57 -3 -1750 c-2
-1236 0 -1769 8 -1815 15 -90 50 -161 111 -225 60 -64 113 -97 190 -119 50
-15 189 -16 1420 -14 l1364 3 58 23 c72 29 172 120 210 191 58 106 57 71 57
1476 l0 1290 -637 637 -638 638 -895 -1 c-859 0 -897 -1 -957 -20z m2217 -884
l585 -585 -588 0 -587 0 0 585 c0 322 1 585 3 585 1 0 265 -263 587 -585z
m480 -1440 l0 -215 -1280 0 -1280 0 0 215 0 215 1280 0 1280 0 0 -215z m-640
-850 l0 -215 -960 0 -960 0 0 215 0 215 960 0 960 0 0 -215z"/>
</g>
</svg>
